<svg xmlns="http://www.w3.org/2000/svg" viewBox="0 0 32 32" width="32" height="32">
  <!-- Background circle -->
  <circle cx="16" cy="16" r="16" fill="#090605ff"/>
  
  <!-- Left curly brace { -->
  <path d="M14 8 C12 8 11 9 11 11 L11 13 C11 14 10 15 9 15 C10 15 11 16 11 17 L11 19 C11 21 12 22 14 22" 
        stroke="#e48d2aff" 
        stroke-width="2.7" 
        stroke-linecap="round" 
        stroke-linejoin="round" 
        fill="none"/>
  
  <!-- Right curly brace } -->
  <path d="M18 8 C20 8 21 9 21 11 L21 13 C21 14 22 15 23 15 C22 15 21 16 21 17 L21 19 C21 21 20 22 18 22" 
        stroke="#e48d2aff" 
        stroke-width="2.7" 
        stroke-linecap="round" 
        stroke-linejoin="round" 
        fill="none"/>
</svg>